<svg width="48" height="48" viewBox="0 0 48 48" fill="none" xmlns="http://www.w3.org/2000/svg">
<rect width="48" height="48" fill="#1B273A"/>
<path d="M35 16.763V29.2802C35 30.7912 33.7539 32 32.25 32H26L20.8164 36.015C20.4727 36.274 20 36.0581 20 35.6264V32H15.75C14.2031 32 13 30.748 13 29.2802V16.763C13 15.2088 14.2031 14 15.75 14H32.25C33.7969 14 35 15.252 35 16.763Z" fill="#237FEB"/>
<path d="M25 16.9863C25 16.7671 25.1458 16.5479 25.3281 16.4749L29.4479 14.3927L31.4896 10.3014C31.7083 9.89954 32.3281 9.89954 32.5469 10.3014L34.5885 14.3927L38.7083 16.4749C38.8906 16.5479 39 16.7671 39 16.9863C39 17.2055 38.8906 17.4247 38.7083 17.4977L34.5885 19.5799L32.5469 23.7078C32.4375 23.8904 32.2552 24 32 24C31.8177 24 31.599 23.8904 31.4896 23.7078L29.4479 19.5799L25.3281 17.4977C25.1458 17.4247 25 17.2055 25 16.9863Z" fill="white"/>
<path d="M24 23L22.1562 23.7812C22.0625 23.8438 22 23.9062 22 24C22 24.0938 22.0625 24.1875 22.1562 24.25L24 25L24.7812 26.875C24.8437 26.9687 24.9062 27 25 27C25.0938 27 25.1875 26.9687 25.25 26.875L26 25L27.875 24.25C27.9687 24.1875 28 24.0938 28 24C28 23.9062 27.9687 23.8438 27.875 23.7812L26 23L25.25 21.1563C25.1875 21.0625 25.0938 21 25 21C24.9062 21 24.8437 21.0625 24.7812 21.1563L24 23Z" fill="white"/>
</svg>