<?xml version="1.0" encoding="UTF-8"?>
<!DOCTYPE svg PUBLIC "-//W3C//DTD SVG 1.1//EN" "http://www.w3.org/Graphics/SVG/1.1/DTD/svg11.dtd">
<!-- Creator: CorelDRAW 2018 (64-Bit) -->
<svg xmlns="http://www.w3.org/2000/svg" xml:space="preserve" width="47.0756mm" height="43.8347mm" version="1.1" style="shape-rendering:geometricPrecision; text-rendering:geometricPrecision; image-rendering:optimizeQuality; fill-rule:evenodd; clip-rule:evenodd"
viewBox="0 0 9078.78 8453.76"
 xmlns:xlink="http://www.w3.org/1999/xlink">
 <defs>
  <style type="text/css">
   <![CDATA[
    .fil2 {fill:#181A25}
    .fil1 {fill:#ADF5FF}
    .fil0 {fill:white}
   ]]>
  </style>
 </defs>
 <g id="Layer_x0020_1">
  <metadata id="CorelCorpID_0Corel-Layer"/>
  <g id="_2497473059472">
   <path class="fil0" d="M6041.93 6651.29l-1329.95 0c-182.67,0 -343.82,116.64 -404.57,288.76 -182.67,517.01 -503.72,936.97 -1002.15,1219.85 -457.32,259.45 -950.06,347.41 -1474.65,262.61 -965.88,-155.67 -1755.62,-1025.14 -1825.01,-2004.09 -65.61,-923.89 452.67,-1762.37 1214.99,-2144.59 241.72,-121.07 534.09,7.39 605.82,268.11l0.64 2.53c50.2,182.25 -23.41,377.57 -183.95,477.57 -720.14,449.3 -954.27,999.63 -720.76,1670.4 229.71,659.39 882.14,1020.94 1590.46,881.08 618.89,-122.14 975.37,-579.86 1037.39,-1313.92 18.76,-222.54 202.07,-395.08 425.46,-395.72 546.11,-1.48 1092.64,-4.22 1638.75,4.22 267.9,4.22 474.6,-23.62 676.27,-259.66 332.23,-388.55 943.51,-353.52 1301.25,13.5 365.56,375.05 348.05,978.32 -38.82,1337.55 -373.35,346.56 -962.93,328.01 -1312.23,-45.36 -71.53,-76.78 -128.06,-168.32 -198.93,-262.82l0 0zm0 0z"/>
   <path class="fil1" d="M2295.27 5320.65l664.98 -1151.77c91.34,-158.2 70.89,-356.07 -47.79,-494.75 -356.42,-416.7 -559.59,-904.7 -555.35,-1477.81 3.97,-525.76 174.17,-996.48 509.89,-1408.38 617.75,-758.64 1765.61,-1007.84 2648.1,-578.45 832.92,405.13 1299.92,1273.21 1249.78,2124.49 -16.01,269.88 -273.43,458.86 -535.1,390.61l-2.51 -0.71c-182.92,-47.65 -315.28,-209.07 -321.61,-398.09 -29.02,-848.31 -388.56,-1326.23 -1086.24,-1459.39 -685.89,-130.76 -1325.22,253.49 -1558.25,936.83 -203.67,597.06 14.48,1134.63 619.2,1555.38 183.33,127.52 241.11,372.54 129.97,566.32 -271.77,473.67 -542.66,948.37 -823.03,1417.08 -137.6,229.88 -216.85,422.84 -113.26,715.49 170.37,482 -165.59,993.86 -662.32,1120.16 -507.58,129.06 -1021.27,-187.73 -1138.93,-702.38 -113.46,-496.62 197.39,-997.93 695.4,-1113.76 102.25,-23.55 209.79,-26.73 327.06,-40.87l0 0zm0 0z"/>
   <path class="fil0" d="M5306.45 2719.82l664.97 1151.77c91.34,158.2 272.93,239.45 452.36,205.99 539.09,-100.3 1063.31,-32.25 1557.5,257.96 453.35,266.33 775.9,649.07 964.76,1145.77 348.12,914.33 -9.99,2032.98 -823.11,2582.56 -767.29,518.76 -1752.59,489.16 -2464.75,20.08 -225.72,-148.81 -260.66,-466.23 -70.72,-658.7l1.87 -1.81c132.72,-134.61 338.69,-168.52 505.55,-79.49 749.17,399.02 1342.83,326.62 1806.98,-211 456.2,-528.62 443.1,-1274.43 -32.19,-1817.91 -415.22,-474.91 -989.85,-554.77 -1656.59,-241.44 -202.09,95.02 -443.18,22.53 -555.42,-170.6 -274.34,-472.21 -549.98,-944.14 -815.72,-1421.31 -130.29,-234.13 -257.75,-399.21 -563,-455.85 -502.6,-93.44 -777.92,-640.34 -638.93,-1133.66 142.02,-504.1 673.22,-790.57 1177.75,-635.15 486.81,150.04 765.54,669.92 616.83,1159.1 -30.72,100.34 -81.73,195.05 -128.13,303.69l0 0zm0 0z"/>
   <path class="fil2" d="M7268.45 6313.33c8.68,-47.27 8.68,-95.64 0,-143.04l86.57 -50.07c10.12,-5.69 14.5,-17.38 11.17,-28.47 -22.53,-72.63 -61.12,-138.41 -111.51,-192.76 -7.75,-8.49 -20.23,-10.43 -30.22,-4.74l-86.71 50.07c-36.51,-31.26 -78.55,-55.43 -123.87,-71.55l0 -100.15c0,-11.38 -8.08,-21.48 -19.13,-23.76 -74.92,-16.86 -151.08,-16.08 -222.36,0 -11.03,2.28 -19.11,12.38 -19.11,23.76l0 100.15c-45.34,16.12 -87.36,40.29 -123.87,71.55l-86.71 -50.07c-9.72,-5.69 -22.47,-3.74 -30.22,4.74 -50.39,54.35 -88.98,120.13 -111.53,192.76 -3.34,11.09 1.39,22.78 11.17,28.47l86.59 50.07c-8.7,47.4 -8.7,95.77 0,143.04l-86.59 50.08c-10.11,5.69 -14.5,17.41 -11.17,28.58 22.54,72.53 61.14,137.97 111.53,192.76 7.75,8.41 20.23,10.32 30.22,4.63l86.71 -49.95c36.51,31.15 78.53,55.31 123.87,71.43l0 100.15c0,11.42 8.08,21.48 19.11,23.88 74.94,16.74 151.08,16.08 222.36,0 11.05,-2.39 19.13,-12.46 19.13,-23.88l0 -100.15c45.32,-16.12 87.36,-40.29 123.87,-71.43l86.71 49.95c9.7,5.69 22.47,3.78 30.22,-4.63 50.39,-54.46 88.98,-120.23 111.51,-192.76 3.34,-11.17 -1.37,-22.89 -11.17,-28.58l-86.57 -50.08zm-384.5 91.34c-90.02,0 -162.89,-73.17 -162.89,-162.77 0,-89.75 73.17,-162.94 162.89,-162.94 89.6,0 162.79,73.19 162.79,162.94 0,89.6 -72.86,162.77 -162.79,162.77z"/>
   <path class="fil2" d="M4630.13 1946.06l193.8 193.74 -420.79 420.83 -172.76 18.98c-23.12,2.74 -42.7,-16.64 -40.11,-39.9l19.23 -172.82 420.64 -420.83 0 0zm313.66 -28.68l-91.01 -91.07c-28.39,-28.29 -74.44,-28.29 -102.79,0l-85.61 85.65 193.8 193.74 85.61 -85.63c28.35,-28.29 28.35,-74.4 0,-102.7l0 0z"/>
   <path class="fil2" d="M2483.76 5943.28l-592.41 0c-54.42,0 -98.76,44.24 -98.76,98.74l0 444.34c0,54.5 44.34,98.74 98.76,98.74l148.11 0 0 129.56c0,15 17.28,24.09 29.45,15l192.7 -144.56 222.15 0c54.46,0 98.72,-44.24 98.72,-98.74l0 -444.34c0,-54.5 -44.26,-98.74 -98.72,-98.74z"/>
  </g>
 </g>
</svg>