<?xml version="1.0" encoding="UTF-8"?>
<!DOCTYPE svg PUBLIC "-//W3C//DTD SVG 1.1//EN" "http://www.w3.org/Graphics/SVG/1.1/DTD/svg11.dtd">
<!-- Creator: CorelDRAW 2018 (64-Bit) -->
<svg xmlns="http://www.w3.org/2000/svg" xml:space="preserve" width="67.3101mm" height="67.3101mm" version="1.1" style="shape-rendering:geometricPrecision; text-rendering:geometricPrecision; image-rendering:optimizeQuality; fill-rule:evenodd; clip-rule:evenodd"
viewBox="0 0 108513.35 108513.35"
 xmlns:xlink="http://www.w3.org/1999/xlink">
 <defs>
  <style type="text/css">
   <![CDATA[
    .fil0 {fill:#181A25}
    .fil2 {fill:#ADF5FF}
    .fil1 {fill:white}
   ]]>
  </style>
 </defs>
 <g id="Layer_x0020_1">
  <metadata id="CorelCorpID_0Corel-Layer"/>
  <rect class="fil0" x="-0.08" y="-0.08" width="108513.35" height="108513.35"/>
  <g id="_2461112252320">
   <path class="fil1" d="M66816.95 74523.14l-11117.48 0c-1527.02,0 -2874.12,975.02 -3381.95,2413.86 -1527.02,4321.83 -4210.75,7832.42 -8377.33,10197.11 -3822.87,2168.81 -7941.89,2904.11 -12327.07,2195.25 -8074.08,-1301.32 -14675.8,-8569.5 -15255.85,-16752.88 -548.45,-7723.12 3784.02,-14732.23 10156.49,-17927.33 2020.66,-1012.1 4464.66,61.74 5064.22,2241.2l5.32 21.12c419.64,1523.47 -195.71,3156.25 -1537.66,3992.14 -6019.89,3755.8 -7977.03,8356.21 -6025.05,13963.4 1920.22,5512.07 7374.09,8534.35 13295.16,7365.23 5173.52,-1020.97 8153.4,-4847.22 8671.87,-10983.51 156.86,-1860.25 1689.2,-3302.63 3556.54,-3307.95 4565.1,-12.41 9133.74,-35.31 13698.84,35.31 2239.42,35.31 3967.32,-197.49 5653.13,-2170.59 2777.23,-3247.98 7887.08,-2955.22 10877.6,112.85 3055.81,3135.13 2909.43,8178.07 -324.52,11181 -3120.94,2897.02 -8049.42,2741.93 -10969.33,-379.18 -597.94,-641.79 -1070.46,-1407.08 -1662.92,-2197.03l0 0zm0 0z"/>
   <path class="fil2" d="M35497.4 63399.85l5558.82 -9628.03c763.51,-1322.44 592.62,-2976.5 -399.49,-4135.79 -2979.4,-3483.35 -4677.79,-7562.71 -4642.32,-12353.51 33.21,-4395.02 1455.92,-8329.93 4262.34,-11773.14 5164.01,-6341.68 14759.31,-8424.89 22136.3,-4835.45 6962.67,3386.62 10866.47,10643.19 10447.32,17759.34 -133.81,2256.03 -2285.69,3835.77 -4473.05,3265.23l-20.96 -5.96c-1529.12,-398.36 -2635.53,-1747.72 -2688.41,-3327.78 -242.63,-7091.32 -3248.14,-11086.37 -9080.22,-12199.55 -5733.58,-1093.03 -11077.99,2119 -13025.94,7831.3 -1702.58,4991.03 121.07,9484.71 5176.1,13001.92 1532.5,1065.95 2015.5,3114.17 1086.42,4734.05 -2271.83,3959.58 -4536.24,7927.7 -6879.97,11845.85 -1150.26,1921.67 -1812.69,3534.62 -946.81,5981.04 1424.17,4029.22 -1384.18,8308.01 -5536.57,9363.8 -4242.99,1078.84 -8537.09,-1569.26 -9520.66,-5871.42 -948.42,-4151.42 1650.03,-8342.02 5813.06,-9310.27 854.76,-196.84 1753.69,-223.44 2734.03,-341.61l0 0zm0 0z"/>
   <path class="fil1" d="M60668.89 41658.68l5558.66 9628.03c763.51,1322.44 2281.5,2001.63 3781.44,1721.93 4506.42,-838.47 8888.54,-269.55 13019.65,2156.4 3789.66,2226.37 6485.96,5425.82 8064.73,9577.89 2910.08,7643.16 -83.51,16994.38 -6880.62,21588.5 -6414.06,4336.5 -14650.49,4089.03 -20603.64,167.82 -1886.85,-1243.93 -2178.97,-3897.35 -591.17,-5506.27l15.64 -15.15c1109.48,-1125.27 2831.24,-1408.69 4226.07,-664.52 6262.52,3335.52 11225.17,2730.32 15105.11,-1763.84 3813.52,-4418.88 3704.05,-10653.35 -269.07,-15196.52 -3470.94,-3969.9 -8274.47,-4637.48 -13847.97,-2018.24 -1689.36,794.3 -3704.7,188.3 -4642.97,-1426.1 -2293.27,-3947.33 -4597.5,-7892.4 -6818.87,-11881.15 -1089.16,-1957.14 -2154.63,-3337.13 -4706.32,-3810.62 -4201.4,-781.08 -6502.89,-5352.79 -5341.02,-9476.65 1187.18,-4213.97 5627.66,-6608.65 9845.18,-5309.42 4069.37,1254.25 6399.39,5600.09 5156.27,9689.29 -256.81,838.8 -683.23,1630.52 -1071.11,2538.64l0 0zm0 0z"/>
   <path class="fil0" d="M77069.84 71698.02c72.55,-395.14 72.55,-799.46 0,-1195.72l723.69 -418.51c84.64,-47.56 121.23,-145.25 93.34,-237.95 -188.3,-607.13 -510.89,-1157.03 -932.14,-1611.33 -64.81,-70.93 -169.11,-87.22 -252.62,-39.66l-724.82 418.51c-305.18,-261.33 -656.62,-463.33 -1035.48,-598.1l0 -837.18c0,-95.12 -67.55,-179.59 -159.92,-198.62 -626.32,-140.9 -1262.95,-134.45 -1858.8,0 -92.21,19.02 -159.76,103.5 -159.76,198.62l0 837.18c-379.01,134.77 -730.3,336.78 -1035.48,598.1l-724.82 -418.51c-81.25,-47.56 -187.81,-31.28 -252.62,39.66 -421.25,454.3 -743.84,1004.2 -932.3,1611.33 -27.89,92.7 11.61,190.39 93.34,237.95l723.85 418.51c-72.71,396.26 -72.71,800.59 0,1195.72l-723.85 418.67c-84.48,47.56 -121.23,145.58 -93.34,238.92 188.46,606.33 511.05,1153.33 932.3,1611.33 64.81,70.29 169.11,86.25 252.62,38.69l724.82 -417.54c305.18,260.36 656.46,462.36 1035.48,597.14l0 837.18c0,95.44 67.55,179.59 159.76,199.58 626.48,139.93 1262.95,134.45 1858.8,0 92.38,-19.99 159.92,-104.14 159.92,-199.58l0 -837.18c378.85,-134.77 730.3,-336.78 1035.48,-597.14l724.82 417.54c81.09,47.56 187.81,31.6 252.62,-38.69 421.25,-455.27 743.84,-1005.01 932.14,-1611.33 27.89,-93.34 -11.45,-191.36 -93.34,-238.92l-723.69 -418.67zm-3214.12 763.51c-752.55,0 -1361.61,-611.65 -1361.61,-1360.65 0,-750.29 611.65,-1362.1 1361.61,-1362.1 749,0 1360.81,611.81 1360.81,1362.1 0,749 -609.07,1360.65 -1360.81,1360.65z"/>
   <path class="fil0" d="M55015.27 35190.61l1620.04 1619.56 -3517.53 3517.85 -1444.16 158.63c-193.3,22.89 -356.93,-139.13 -335.33,-333.55l160.73 -1444.64 3516.24 -3517.85 0 0zm2621.99 -239.73l-760.77 -761.25c-237.31,-236.5 -622.29,-236.5 -859.27,0l-715.63 715.95 1620.04 1619.56 715.63 -715.79c236.98,-236.5 236.98,-621.96 0,-858.46l0 0z"/>
   <path class="fil0" d="M37073.11 68604.65l-4952.17 0c-454.95,0 -825.58,369.83 -825.58,825.42l0 3714.37c0,455.59 370.63,825.42 825.58,825.42l1238.12 0 0 1083.04c0,125.42 144.45,201.36 246.17,125.42l1610.85 -1208.46 1857.02 0c455.27,0 825.25,-369.83 825.25,-825.42l0 -3714.37c0,-455.59 -369.99,-825.42 -825.25,-825.42z"/>
  </g>
 </g>
</svg>